<mxfile host="65bd71144e">
    <diagram id="FWm2M8jQ4jRC4MYuqb36" name="Page-1">
        <mxGraphModel dx="820" dy="403" grid="1" gridSize="10" guides="1" tooltips="1" connect="1" arrows="1" fold="1" page="1" pageScale="1" pageWidth="1654" pageHeight="2336" math="0" shadow="0">
            <root>
                <mxCell id="0"/>
                <mxCell id="1" parent="0"/>
                <mxCell id="vQLqVPP-oP36RNeWfj-b-14" value="users" style="swimlane;fontStyle=0;childLayout=stackLayout;horizontal=1;startSize=26;horizontalStack=0;resizeParent=1;resizeParentMax=0;resizeLast=0;collapsible=1;marginBottom=0;align=center;fontSize=14;fillColor=#fff2cc;strokeColor=#000000;fontColor=#000000;" parent="1" vertex="1">
                    <mxGeometry x="480" y="190" width="160" height="176" as="geometry"/>
                </mxCell>
                <mxCell id="vQLqVPP-oP36RNeWfj-b-15" value="id" style="text;spacingLeft=4;spacingRight=4;overflow=hidden;rotatable=0;points=[[0,0.5],[1,0.5]];portConstraint=eastwest;fontSize=12;fillColor=#fff2cc;strokeColor=#000000;fontStyle=4;fontColor=#000000;" parent="vQLqVPP-oP36RNeWfj-b-14" vertex="1">
                    <mxGeometry y="26" width="160" height="30" as="geometry"/>
                </mxCell>
                <mxCell id="vQLqVPP-oP36RNeWfj-b-16" value="name" style="text;spacingLeft=4;spacingRight=4;overflow=hidden;rotatable=0;points=[[0,0.5],[1,0.5]];portConstraint=eastwest;fontSize=12;fillColor=#fff2cc;strokeColor=#000000;fontColor=#000000;" parent="vQLqVPP-oP36RNeWfj-b-14" vertex="1">
                    <mxGeometry y="56" width="160" height="30" as="geometry"/>
                </mxCell>
                <mxCell id="vQLqVPP-oP36RNeWfj-b-17" value="email" style="text;spacingLeft=4;spacingRight=4;overflow=hidden;rotatable=0;points=[[0,0.5],[1,0.5]];portConstraint=eastwest;fontSize=12;fillColor=#fff2cc;strokeColor=#000000;fontColor=#000000;" parent="vQLqVPP-oP36RNeWfj-b-14" vertex="1">
                    <mxGeometry y="86" width="160" height="30" as="geometry"/>
                </mxCell>
                <mxCell id="vQLqVPP-oP36RNeWfj-b-26" value="password" style="text;spacingLeft=4;spacingRight=4;overflow=hidden;rotatable=0;points=[[0,0.5],[1,0.5]];portConstraint=eastwest;fontSize=12;fillColor=#fff2cc;strokeColor=#000000;fontColor=#000000;" parent="vQLqVPP-oP36RNeWfj-b-14" vertex="1">
                    <mxGeometry y="116" width="160" height="30" as="geometry"/>
                </mxCell>
                <mxCell id="vQLqVPP-oP36RNeWfj-b-33" value="role" style="text;spacingLeft=4;spacingRight=4;overflow=hidden;rotatable=0;points=[[0,0.5],[1,0.5]];portConstraint=eastwest;fontSize=12;fillColor=#fff2cc;strokeColor=#000000;fontColor=#000000;" parent="vQLqVPP-oP36RNeWfj-b-14" vertex="1">
                    <mxGeometry y="146" width="160" height="30" as="geometry"/>
                </mxCell>
                <mxCell id="vQLqVPP-oP36RNeWfj-b-32" style="edgeStyle=orthogonalEdgeStyle;rounded=0;orthogonalLoop=1;jettySize=auto;html=1;exitX=0.5;exitY=0;exitDx=0;exitDy=0;entryX=0.5;entryY=1;entryDx=0;entryDy=0;startArrow=ERmany;startFill=0;endArrow=ERone;endFill=0;fontColor=#000000;" parent="1" source="vQLqVPP-oP36RNeWfj-b-18" target="vQLqVPP-oP36RNeWfj-b-14" edge="1">
                    <mxGeometry relative="1" as="geometry"/>
                </mxCell>
                <mxCell id="vQLqVPP-oP36RNeWfj-b-18" value="books" style="swimlane;fontStyle=0;childLayout=stackLayout;horizontal=1;startSize=26;horizontalStack=0;resizeParent=1;resizeParentMax=0;resizeLast=0;collapsible=1;marginBottom=0;align=center;fontSize=14;fillColor=#fff2cc;strokeColor=#000000;fontColor=#000000;" parent="1" vertex="1">
                    <mxGeometry x="480" y="440" width="160" height="176" as="geometry"/>
                </mxCell>
                <mxCell id="vQLqVPP-oP36RNeWfj-b-19" value="id" style="text;spacingLeft=4;spacingRight=4;overflow=hidden;rotatable=0;points=[[0,0.5],[1,0.5]];portConstraint=eastwest;fontSize=12;fillColor=#fff2cc;strokeColor=#000000;fontStyle=4;fontColor=#000000;" parent="vQLqVPP-oP36RNeWfj-b-18" vertex="1">
                    <mxGeometry y="26" width="160" height="30" as="geometry"/>
                </mxCell>
                <mxCell id="vQLqVPP-oP36RNeWfj-b-20" value="title" style="text;spacingLeft=4;spacingRight=4;overflow=hidden;rotatable=0;points=[[0,0.5],[1,0.5]];portConstraint=eastwest;fontSize=12;fillColor=#fff2cc;strokeColor=#000000;fontColor=#000000;" parent="vQLqVPP-oP36RNeWfj-b-18" vertex="1">
                    <mxGeometry y="56" width="160" height="30" as="geometry"/>
                </mxCell>
                <mxCell id="vQLqVPP-oP36RNeWfj-b-21" value="author" style="text;spacingLeft=4;spacingRight=4;overflow=hidden;rotatable=0;points=[[0,0.5],[1,0.5]];portConstraint=eastwest;fontSize=12;fillColor=#fff2cc;strokeColor=#000000;fontColor=#000000;" parent="vQLqVPP-oP36RNeWfj-b-18" vertex="1">
                    <mxGeometry y="86" width="160" height="30" as="geometry"/>
                </mxCell>
                <mxCell id="vQLqVPP-oP36RNeWfj-b-27" value="description" style="text;spacingLeft=4;spacingRight=4;overflow=hidden;rotatable=0;points=[[0,0.5],[1,0.5]];portConstraint=eastwest;fontSize=12;fillColor=#fff2cc;strokeColor=#000000;fontColor=#000000;" parent="vQLqVPP-oP36RNeWfj-b-18" vertex="1">
                    <mxGeometry y="116" width="160" height="30" as="geometry"/>
                </mxCell>
                <mxCell id="vQLqVPP-oP36RNeWfj-b-28" value="user" style="text;spacingLeft=4;spacingRight=4;overflow=hidden;rotatable=0;points=[[0,0.5],[1,0.5]];portConstraint=eastwest;fontSize=12;fillColor=#fff2cc;strokeColor=#000000;fontColor=#000000;" parent="vQLqVPP-oP36RNeWfj-b-18" vertex="1">
                    <mxGeometry y="146" width="160" height="30" as="geometry"/>
                </mxCell>
                <mxCell id="vQLqVPP-oP36RNeWfj-b-22" value="roles" style="swimlane;fontStyle=0;childLayout=stackLayout;horizontal=1;startSize=26;horizontalStack=0;resizeParent=1;resizeParentMax=0;resizeLast=0;collapsible=1;marginBottom=0;align=center;fontSize=14;fillColor=#fff2cc;strokeColor=#000000;fontColor=#000000;" parent="1" vertex="1">
                    <mxGeometry x="220" y="366" width="160" height="86" as="geometry"/>
                </mxCell>
                <mxCell id="vQLqVPP-oP36RNeWfj-b-23" value="id" style="text;spacingLeft=4;spacingRight=4;overflow=hidden;rotatable=0;points=[[0,0.5],[1,0.5]];portConstraint=eastwest;fontSize=12;fillColor=#fff2cc;strokeColor=#000000;fontStyle=4;fontColor=#000000;" parent="vQLqVPP-oP36RNeWfj-b-22" vertex="1">
                    <mxGeometry y="26" width="160" height="30" as="geometry"/>
                </mxCell>
                <mxCell id="vQLqVPP-oP36RNeWfj-b-24" value="name" style="text;spacingLeft=4;spacingRight=4;overflow=hidden;rotatable=0;points=[[0,0.5],[1,0.5]];portConstraint=eastwest;fontSize=12;fillColor=#fff2cc;strokeColor=#000000;fontColor=#000000;" parent="vQLqVPP-oP36RNeWfj-b-22" vertex="1">
                    <mxGeometry y="56" width="160" height="30" as="geometry"/>
                </mxCell>
                <mxCell id="vQLqVPP-oP36RNeWfj-b-31" style="edgeStyle=orthogonalEdgeStyle;rounded=0;orthogonalLoop=1;jettySize=auto;html=1;exitX=0;exitY=0.5;exitDx=0;exitDy=0;entryX=1;entryY=0.5;entryDx=0;entryDy=0;endArrow=ERone;endFill=0;startArrow=ERmany;startFill=0;fontColor=#000000;" parent="1" source="vQLqVPP-oP36RNeWfj-b-15" target="vQLqVPP-oP36RNeWfj-b-23" edge="1">
                    <mxGeometry relative="1" as="geometry"/>
                </mxCell>
            </root>
        </mxGraphModel>
    </diagram>
</mxfile>
